<svg width="263" height="58" viewBox="0 0 263 58" fill="none" xmlns="http://www.w3.org/2000/svg">
<path d="M45.4725 28.843C45.4725 19.6407 37.9966 12.1552 28.8061 12.1552C19.6156 12.1552 12.1397 19.6407 12.1397 28.843C12.1397 38.0452 19.6156 45.5307 28.8061 45.5307V57.6859C12.9627 57.6859 0 44.7066 0 28.843C0 12.9793 12.8942 0 28.8061 0C44.6495 0 57.6122 12.9107 57.6122 28.843H45.4725Z" fill="white"></path>
<path d="M28.8061 28.843H40.9458C40.9458 38.0452 48.4217 45.5307 57.6122 45.5307V57.6859C41.7689 57.6859 28.8061 44.7753 28.8061 28.843Z" fill="white"></path>
<path d="M256.48 43.1996C257.028 42.7909 257.507 42.3142 257.987 41.8374C260.316 39.3855 261.892 36.1845 262.303 32.5748C263.399 23.5165 256.959 15.3436 247.848 14.2539C238.736 13.1641 230.515 19.5663 229.419 28.6246C228.323 37.6829 234.762 45.8558 243.874 47.0136C245.792 47.2179 246.546 47.2179 248.19 46.8093C247.642 45.4471 247.299 44.0169 247.162 42.5185C246.34 42.5185 245.107 42.5185 244.422 42.4504C237.914 41.6331 233.255 35.7758 234.077 29.2375C234.899 22.7673 240.791 18.136 247.368 18.9533C253.876 19.7706 258.535 25.6278 257.713 32.1661C257.233 36.1164 254.835 39.3855 251.547 41.1563H251.478C251.478 47.0817 256.343 51.9173 262.371 51.9173V47.3541C259.631 47.286 257.37 45.5833 256.48 43.1996Z" fill="white"></path>
<path d="M214.919 38.0192L197.134 14.7101H193.577V46.7258H198.229V23.5538L215.809 46.7258H219.503V14.7101H214.919V38.0192Z" fill="white"></path>
<path d="M166.719 14.7097L153.825 46.7254H158.79L169.271 20.6741L179.683 46.7254H184.647L171.753 14.7097H166.719Z" fill="white"></path>
<path d="M143.448 30.4091C144.685 28.6952 145.304 26.7756 145.304 24.7189C145.304 21.9767 144.341 19.5772 142.348 17.6576C140.355 15.7381 138.018 14.7097 135.269 14.7097H120.697V46.7254H125.302V19.0288H135.2C136.712 19.0288 138.018 19.5772 139.049 20.6741C140.08 21.771 140.63 23.1421 140.63 24.6504C140.63 26.2271 140.08 27.5983 139.049 28.6952C138.018 29.7921 136.712 30.3405 135.2 30.3405H131.626L141.18 46.6569H146.335L138.843 33.9054C140.698 33.2884 142.211 32.0544 143.448 30.4091Z" fill="white"></path>
<path d="M86.1309 46.7254H90.6947V33.2884H105.817V28.9008H90.6947V19.0973H110.04V14.7097H86.1309V46.7254Z" fill="white"></path>
</svg>